<mxfile host="app.diagrams.net" modified="2023-05-08T11:43:01.859Z" agent="Mozilla/5.0 (Windows NT 10.0; Win64; x64) AppleWebKit/537.36 (KHTML, like Gecko) Chrome/112.0.0.0 Safari/537.36 Edg/112.0.1722.48" etag="entYr8x0L31kdMUOE6y5" version="21.2.9" type="github" pages="2">
  <diagram name="Page-1" id="2YBvvXClWsGukQMizWep">
    <mxGraphModel dx="1290" dy="587" grid="1" gridSize="10" guides="1" tooltips="1" connect="1" arrows="1" fold="1" page="1" pageScale="1" pageWidth="850" pageHeight="1100" math="0" shadow="0">
      <root>
        <mxCell id="0" />
        <mxCell id="1" parent="0" />
        <mxCell id="aM9ryv3xv72pqoxQDRHE-1" value=":Object" style="shape=umlLifeline;perimeter=lifelinePerimeter;whiteSpace=wrap;html=1;container=0;dropTarget=0;collapsible=0;recursiveResize=0;outlineConnect=0;portConstraint=eastwest;newEdgeStyle={&quot;edgeStyle&quot;:&quot;elbowEdgeStyle&quot;,&quot;elbow&quot;:&quot;vertical&quot;,&quot;curved&quot;:0,&quot;rounded&quot;:0};" parent="1" vertex="1">
          <mxGeometry x="40" y="40" width="100" height="300" as="geometry" />
        </mxCell>
        <mxCell id="aM9ryv3xv72pqoxQDRHE-2" value="" style="html=1;points=[];perimeter=orthogonalPerimeter;outlineConnect=0;targetShapes=umlLifeline;portConstraint=eastwest;newEdgeStyle={&quot;edgeStyle&quot;:&quot;elbowEdgeStyle&quot;,&quot;elbow&quot;:&quot;vertical&quot;,&quot;curved&quot;:0,&quot;rounded&quot;:0};" parent="aM9ryv3xv72pqoxQDRHE-1" vertex="1">
          <mxGeometry x="45" y="70" width="10" height="190" as="geometry" />
        </mxCell>
        <mxCell id="aM9ryv3xv72pqoxQDRHE-3" value="dispatch" style="html=1;verticalAlign=bottom;startArrow=oval;endArrow=block;startSize=8;edgeStyle=elbowEdgeStyle;elbow=vertical;curved=0;rounded=0;" parent="aM9ryv3xv72pqoxQDRHE-1" target="aM9ryv3xv72pqoxQDRHE-2" edge="1">
          <mxGeometry relative="1" as="geometry">
            <mxPoint x="-15" y="70" as="sourcePoint" />
          </mxGeometry>
        </mxCell>
        <mxCell id="aM9ryv3xv72pqoxQDRHE-4" value="" style="html=1;points=[];perimeter=orthogonalPerimeter;outlineConnect=0;targetShapes=umlLifeline;portConstraint=eastwest;newEdgeStyle={&quot;edgeStyle&quot;:&quot;elbowEdgeStyle&quot;,&quot;elbow&quot;:&quot;vertical&quot;,&quot;curved&quot;:0,&quot;rounded&quot;:0};" parent="aM9ryv3xv72pqoxQDRHE-1" vertex="1">
          <mxGeometry x="50" y="120" width="10" height="80" as="geometry" />
        </mxCell>
        <mxCell id="aM9ryv3xv72pqoxQDRHE-5" value=":Object" style="shape=umlLifeline;perimeter=lifelinePerimeter;whiteSpace=wrap;html=1;container=0;dropTarget=0;collapsible=0;recursiveResize=0;outlineConnect=0;portConstraint=eastwest;newEdgeStyle={&quot;edgeStyle&quot;:&quot;elbowEdgeStyle&quot;,&quot;elbow&quot;:&quot;vertical&quot;,&quot;curved&quot;:0,&quot;rounded&quot;:0};" parent="1" vertex="1">
          <mxGeometry x="220" y="40" width="100" height="300" as="geometry" />
        </mxCell>
        <mxCell id="aM9ryv3xv72pqoxQDRHE-6" value="" style="html=1;points=[];perimeter=orthogonalPerimeter;outlineConnect=0;targetShapes=umlLifeline;portConstraint=eastwest;newEdgeStyle={&quot;edgeStyle&quot;:&quot;elbowEdgeStyle&quot;,&quot;elbow&quot;:&quot;vertical&quot;,&quot;curved&quot;:0,&quot;rounded&quot;:0};" parent="aM9ryv3xv72pqoxQDRHE-5" vertex="1">
          <mxGeometry x="45" y="80" width="10" height="170" as="geometry" />
        </mxCell>
        <mxCell id="aM9ryv3xv72pqoxQDRHE-7" value="dispatch" style="html=1;verticalAlign=bottom;endArrow=block;edgeStyle=elbowEdgeStyle;elbow=vertical;curved=0;rounded=0;" parent="1" source="aM9ryv3xv72pqoxQDRHE-2" target="aM9ryv3xv72pqoxQDRHE-6" edge="1">
          <mxGeometry relative="1" as="geometry">
            <mxPoint x="195" y="130" as="sourcePoint" />
            <Array as="points">
              <mxPoint x="180" y="120" />
            </Array>
          </mxGeometry>
        </mxCell>
        <mxCell id="aM9ryv3xv72pqoxQDRHE-8" value="return" style="html=1;verticalAlign=bottom;endArrow=open;dashed=1;endSize=8;edgeStyle=elbowEdgeStyle;elbow=vertical;curved=0;rounded=0;" parent="1" source="aM9ryv3xv72pqoxQDRHE-6" target="aM9ryv3xv72pqoxQDRHE-2" edge="1">
          <mxGeometry relative="1" as="geometry">
            <mxPoint x="195" y="205" as="targetPoint" />
            <Array as="points">
              <mxPoint x="190" y="280" />
            </Array>
          </mxGeometry>
        </mxCell>
        <mxCell id="aM9ryv3xv72pqoxQDRHE-9" value="callback" style="html=1;verticalAlign=bottom;endArrow=block;edgeStyle=elbowEdgeStyle;elbow=vertical;curved=0;rounded=0;" parent="1" source="aM9ryv3xv72pqoxQDRHE-6" target="aM9ryv3xv72pqoxQDRHE-4" edge="1">
          <mxGeometry relative="1" as="geometry">
            <mxPoint x="175" y="160" as="sourcePoint" />
            <Array as="points">
              <mxPoint x="190" y="160" />
            </Array>
          </mxGeometry>
        </mxCell>
        <mxCell id="aM9ryv3xv72pqoxQDRHE-10" value="return" style="html=1;verticalAlign=bottom;endArrow=open;dashed=1;endSize=8;edgeStyle=elbowEdgeStyle;elbow=vertical;curved=0;rounded=0;" parent="1" source="aM9ryv3xv72pqoxQDRHE-4" target="aM9ryv3xv72pqoxQDRHE-6" edge="1">
          <mxGeometry relative="1" as="geometry">
            <mxPoint x="175" y="235" as="targetPoint" />
            <Array as="points">
              <mxPoint x="180" y="230" />
            </Array>
          </mxGeometry>
        </mxCell>
      </root>
    </mxGraphModel>
  </diagram>
  <diagram id="VUQNhzI3pr4cYe6YCQJx" name="第 2 页">
    <mxGraphModel dx="1290" dy="587" grid="1" gridSize="10" guides="1" tooltips="1" connect="1" arrows="1" fold="1" page="1" pageScale="1" pageWidth="827" pageHeight="1169" math="0" shadow="0">
      <root>
        <mxCell id="0" />
        <mxCell id="1" parent="0" />
        <mxCell id="Gblo-tSmSPFFsh6BlS2f-1" value="" style="shape=image;verticalLabelPosition=bottom;labelBackgroundColor=default;verticalAlign=top;aspect=fixed;imageAspect=0;image=data:image/png,iVBORw0KGgoAAAANSUhEUgAAALgAAACgCAYAAAC/tqYxAAAAAXNSR0IArs4c6QAAAARnQU1BAACxjwv8YQUAAAAJcEhZcwAAEnQAABJ0Ad5mH3gAABYESURBVHhe7Z1/bBTnmce/u/b6B4YYjBNo0hAQ2GywLzkdJb+OXi5tAxe7uRipJuVObYUu90tEBV0jBemk2v6nAim9gyjWVUp0KLm2OXAkoK1pQZconLiS4Nw1UBsW2xSnSROSOMZAzNpee/fe55131rO7M7sz69317Pj5SK/9zjvv++6Cv/Pu8z67811fTAATwuEwKisr1VF+8MpjXLlyBcuXL1dH+YH/HvYx/j388ifDeBQWOONpUkKUkydPqhrDFCf3338/KioqZN1U4CtWrEBJSYlqyT3T09Oq5g3ov9Dn86kjZi4gvZaWlmJgYCCzwFetWiX/aAxTTCxevBjvvvtugsA5Bmc8DQuc8TQscMbTsMAZT1MUAv9kEuj9PIb/vQFZqE5tDJMJP711aixuYmgc+NVnwMmrMZz9HLgwphWqUxudoz4Mk4yuZz99LsBY3AClKN++Blk+Eiv151EfJmM+RGKQherURuf0fpzWZIzoenZliPKWEOyAeDEZmwbo7ZN0hfpQXxrDMMm4TuCXRchxaVxbrf2kYIXPXwJ/aQAlZeXyN9Q7h9SH+tIYGmtFeHoMZ0f/Byc/OYpLn/eKFl7x5wOuEnhUlLM3NHEbtA1/IICR9wZx6eQv0Xf0pxg6/QYmPhe7TQX1pTE0luZIhsKXk58eRej6/2E0MoyekTfwrhD7XNC9YyVWrhRlR7dqcUj3Djk+2+FW9O/bJOfdtK9ftXgDVwn8ygQwOhVLELfP78fg67/Ahe6DuDnyqfzMx2eXLqD3yI8xPT2lemkip7E0RzIfjb+H0clhPLJsC56442+wqupuXLpBq3ih6cYxXZjdx8QRk29cJfAPJ1LDhuFLIXzU+w7qH/1LrH74L7By49ewdtMW1D3ShJKSUtVrBrM59HCE9qE3p29gKiYuDHFFUD255BUl6ubmZjrAfhetlvW7TmBoaAgndtWrFm/gKoFfnzKu3RrD/b2ovmMlalevQ0V1DcoXVWPB0ttwyx13qR6JmM0RM8TbP/vDAbx/cwCR6KSsJ5f80Y99+6W80bSzDiSj/mPHRCuTT1wl8GmTVF8kfBPlCxeJFVcIl87rxQKzOW4pXYLG6vuxKFCtWuaA/mM4RmpubkJzfROaNIVrbRbE43VVrOJjPX6muDx5jB6rW7XHMYnt7czrdlwl8EqTj6DfcvsKDA9ewNTkhMye6JmUiRvmeUGzORYFNIEvKBEXyhyhr9bNTRSe1KNJUziOmSpcrPabSET12HViSIYOVHYObMKm/QOqTyokwmNNev9O8VoxI8z9dVoIMjR0AhSFdO/YBLsRUuK8zsfPJa4S+K1lvpTF+QuN6xGoXIDf/OTfcPnUCbz/zimcO/wKzh58EVMTiXlBGktzuA9dyCI8IdUJ6nftlALs37c/ZbPZv+9pKZ7mTk1MOs2dQuR1aVTV3IlONT891k59cP0uvBCfSFw0L+wSP60uLhMS5p0Zr4Vc7sZVAv9iOVCSpM/Agio0PL4NS1bW4doH7+HTi+dkxmTVlzejJFCmdVLQWJrDdXTv11Y7Ck+0FoEudkNmRaKEJ0S5c6ZzHO0VwJzkc/V1ddrvpiYhyFT6B6xfDYykPGZ9HbSZ3Y+rBL5APJv6Kh+iSct4Zc2tuOuBP0fd1x5H/aMtWP3wY7i1vlGmEHVoDI2lOdxGt1JwslD0Y/28xgAG6GIQ4jQTZU7IlUDFBWLzNWDOcJUcaB/5xyJMrgn4E0Uu6oGKKlQuqZUZFMqkGKG+NIbGZro18psrvpu25J6ZFTp5oxZ/s0df4Zmc47r1rsIXw8bFUSwp9SESjRliclGhA71Qi/hFfagvjaGxbkOPsSl+1jeLCUUGtybxsMXqaDesYDRc+IIO1AZ8+EoNsE6EHASJeFpoV/ySherURlAf6ktj3Efq5jIFFZfP5MRVX9MUooONISNxpcCJ6lJg/S1AU20MX7rFhzvLY6gVe0oqVKc2Okd9qK8rMea+tRYTdEHvg56UaO6kFB+lCncYMix0vAnH8heZexLXCpyoEM9uWZkPjQt9+NPFPjyyBLJQndroHPVxK93798lVOV3mg0jdbDajU+axu7EjHrNvwsDOIZzYWSz5C3fAviiMZ2BfFGbewQJnPA0LnPE0LHDG07DAGU/DAmc8jauNfxgmW3Q9u9L4h2Fmi65nDlEYT2P6TmZ1dTUmJkz8FxjGxQSDwZR3Mk0Fvn79eixcuFC1MExxcO3aNXtv1fsNd8owTDHDSmY8DQuc8TQscMbTmG4yN2zYgAULFqgWa6LhTzH9yRnErl9CbDrxO0V8JWUoXbMN/spbVQvD5Bfbm0xbRCOIXHwF0asXUsRNUBudj/z+uOzLMHNBVgKPRcYQGTxINa3BkhiiI7+VfWkMwxQa5wKPTWHq8mFEb15RDZmhvjSGYQqNI4FTzD1xdr+luJ/+QTf+5ZVf44cv/xqhy8OqVYPG0Hg7RD8eQviFv8P4y7sx/uJOWac2dzOCUw92Ys/2QXU8v+na6oOvsR196niucCTw6Y/fFj/NwxLaqv7J3V/AP337IXzvOw8huKpWnZlBG5+Z6cu/kb8rvrMH5d/6gazrbUye6Noqvz0jXmYlzj70nVfVOcbZCn7jsqqlMj45hWVL07+9T+Nj0Wl1lIbwDfjKtU82+iqqtLpoY/JDX3sjfFuBQ2KVoqSaLG3n8WS7UeJd2CqEv7VLHaalAe29Yo7edlGbW5zF4NNpPoAl/lPGJ6bw2bUwRq9bfN2ZGB8Lp4ndhfhjNz5DbCIs55N1UWSd2uxcHIxDutDR0YeGtja0qhZJ6yH0ts+1PGeP802mCef6P8bx05fwwZVreOvc+zjbby3iWJo4PPrZhzLunh58B7HJsBaDi0J1aqPzTghtFzHxg2cwHDqDl5aIul4McXK8jzomLNuM8fWR4zPzJc1ZjPSdt44p5AovlnhavGVsLVbyRrW667F2l+wzE9okxuB9aG8Ux2L51+bS5tDnTCApVGps74qPzYacCPye+mXY/OBqrFm5FM1frsfDX1qpzphQoiXgC0aoBy9tB1qu7sBuKqc3oJbEqQQZfGKN6HMJoZA8FAwidET8SmgbEReJ6kuo8cEDak5RWtCDU/H+xUQrWmnpJmFZiKihvVe8iB6SK3zrIS2ESVjd+zqw9XybbE8blojHeBIHtX5yPhH2GB5TC5W64o9Bpe38VogXmKzJicCd4Csr9NeIrEHL6fsQ3/IG70PLszVCpELAdNyyGkElYIlsr0FtcEQIfURrCwnRh6iNDgZxRIi79tltaGmRZyXBA9uwUZ4vPkhQvW1Clvrq6Xi1bMWhQwkBjjkNbTgYvzBa0SYfs0ut4nqo1AvjVK2HekHdssWZwEtm+fUJYryvcrk6KBDBJTPiVtQGhcDjol6DoBBq6Ki2og+HhKhbNqDliRoMizYKU4aF6IeD4kIgAYvz1KbN4R20VTqmiUsKvREJe8x0NKzDOlVNy7oG69W9rw8UJK1rmIWaTXAk8MCab4qf2dsU03j6Sm63UbtWiFUKV6zaR0dkKFIrVvba0FVN4BdHUEttWndPo4UHtGr2oaPRJEYuMhwJnD445a9pVEeJ+Ev8WFqd/qblTB+88tH30N+x1rLQeccokRqRq7W+Igs0MYvQ5AiFItqKjqD4HaR4nEqNaFMrtli5SehypU/AEOYUPQ1ob7MRcuQSsXLTq8B5sZIncl60qWoWOI7BA3d+Ff4FqWFGeaAED9xzpzpKxWxMMr7q21C+5RnLQuedo8XMccQG8YjYRAafNcblJGYh0KPiYpAxOSFELcKU0N6emfBEol0Aw3uPJ2wqQ9uPazF90UH57eRwpA/tHWLtFrvPZJmnCjBXaJvdvo4nE55L19bZvYo432T6SlG6aostwepQXxozJwRFPL22JyGdR9kP4wYxLmaxWsczJQJtZRcrdVJ4oo1Xb82reUNPFOsmU2wQY204T6m4eHquEa99Q8TkCRtHbSPZ16Gl+fQ0YS6h8OhQK4VGM8+lq3V2m0zfzZs3E957P3PmjGc+D0656yOhDXjKmEVhigzKoTeiY92hpAsuFePnwWnDTMzK+IfEG7irGYGGHSir+yuUrngMgZWPyzq18c0OzKzp68Jr4sWiVSbr7aPr2XmIYgJlRnxVt6OkpgH+xWIzKOpuzJYw7obe6EkMfcT+oLEDfQ1tyHbPmxOBM0wuoFx82/mkt/JbRWgyiw9tzeqeTIZxE7m9J5NhigAWOONpWOCMp2GBM56GBc54GhY442lY4IynyYnA6U752NiHmB7pQ3T0oqzbunueYfLMrAROH7aKvNeNSF8nJgd+iqnf/xKRoZ/LOrXZNfphmHyRvcDZfJMpApwLPDaFSP+PMXFuPx1obZZo5pvUl8YwTKFxLPDI+69behMefv0Cnv/JW/jRoR5Tb0InRD+4gInDz2Hyv/5d1t1Gik9KHjDzZykWitKbkGLq6EivOkrl9bd/h6npKMbC5iGJE/PNiSP/itj1YUQvn5V195tv5poC3+OZZLgzL70J56f55iCOLOmU93EWlhpsPE1GRca7kfLzXNibUBEdtV5SxiciqF5YkdabkMZHx/6gjkzQvQlHP4GvrELzJYyMa3XRxt6E+YC9CTPyHz8/i2d+eBxvnPkdvv/C63j+VeuVOjZp7RKba2/CuGe3ujF4zxLjne/aavjSnkT7B2PcO7zn1fgY2W7SX+tjNr8i2RdRlOQVWH/MkD6Xenw7z8XYx4hVuxXsTZiGe9cux6MPrUH9iqVo+rN6PLz+LnXGhGkL59k8MLynB4j7B9Jd70LUDv7otbu3iXGbpY2E7kP41G6DoxVZUGCzmp/6Jc1PHoYP9qDW4GFI3ojDQnzJFwp5KB65uEH1Sb1J2uq5pHorEpq/YoI1hiXsTZgRt5pv1u7ebLByEDHtsySGVCOgrCFLirjg14j5ySFLn1+I3cTDUPdGHN7bk7Tar0HLgRnLCtu0bBD/RoOPIiH9FZWBkQ3Ym1AnB96E/uo6dVAY9JdzWXKd1lMuV6ak8TBM9EZUmHgo2kPzdNF9FGVYtpcurA3KwMge7E0o8C9apWrZQeMLd7e9nnEQK6MeHmSzQhYBces5GaBrTrhxqzmHeM6b8MqVKzCWdJQsu1/8zN58UxtfIJQN8sbTWtxKJPoJanbIZKyZFyw9DPU23Y45ByjrOQpTEpxws6b4vQl1PfuXL18OY0lH8ZlvGsKA0Bkc2Zsq8LhPOKF8C80wE2p6tJh8eO+riXOKx3hJPI/ggZkLzympz0XbXwwf7cEpcse1tbnU8aY3oa5nx5vMwIrNKGv4xxRvwnTmm9SXxmQip+abLZvxlBBYPAanb3lIClE003otlJF9jq5O8iwktM0fCVVPzdlFZj7E2MR9wIh8Ayf1ceyQ5rmQaagMT+xvLjU87k0oNhbZ+aJEI5g497yopPvAlU+u+IEvfkWoPKDamPxAOf9XcSq42WN7jey8CWfviyIEG1j7bfiX3C2NNpOhNjpPKz6LuwCozaVMhXqJLL0JdWaVB2fzTfcgfcxlTlw1FCGu9SZk8825Q/+ogLSJLvLQhL0JGSYN7E3IzDtY4IynYYEznoYFzngaFjjjaVjgjKdhgTOehgXOeJqcCJzNNxm3MiuBs/km43ayEngsMia9BiMXX85gvvkyJt59TvalMQxTaJwLPDaFqcuHHXkNUl8awzCFxrHA2XyTsQObb6aBzTfngCRHqdmJs0jNNyOD/yl+mt+iFp6YwmMb69Kab9J4O9mV6fP/DV95pTTfrPjb/bJObUx+YPNNnekJVTFB/KeMC5GnM9+k8bFwmlBFN9+cCMv5ZJ0MOKlObZx6zANsvpkRd5pvKuPN7YMZDDLTGXRCuyM+eY4EQ0zzcZJk400HvoiFxrPmm+FwGMaSDW4135SYGWQaLNxsGXQa5zi9AbWhHincl3SzTJN5NePNSwiSx7c+N8Q414ncm+abup79lZWVMJZscGK+6Sv0jchmBpkGsx9bBp3GOYL3YaP0HTGaZSovkpDmR6j7A2q+K7JBIOY+QBeHslhzEV4039T17CxEyYH5pq8yvXtWzklnkKnIaNBpNkeSWWbtWoMXoLRwSJqXyoM94gJIMt10CWy+KSgu80075NegU/fxTi7ZuVoVBs+Zb6rftigq8007ZDTozJI0xpvFQfGbb+o4W8FF/Fx+784UX0KisiIg428raEwmIyD/rXei8ukXLQudzz3pDDqzxcJ4k7IqZiHQnOJN800d52lCXylKV20xFbkV1JfGuA4bBp3ZQsabCXPneP7cweab5rD5JlMQ2HyT8TKzNN+k1FACb775ZmxsbEwdMUzh6G1riDW09aoj4lBMyDqGhraYsdWK0dFRqd9wOKxaYrHsV3CGyTH5MN9kgTOuwvg2vSwZ4u5MsMAZT8MCZzwNC5zxNCxwxtOwwBlPwwJnPA0LnPE0LHDG0+RE4Gy+ybgV/jQh4xly9mlCab45eJBqWoMlMURHfiv7svkmMxc4FzibbzJFhGOBF5P5prybJqMPyYxBEOM9HBn/RIZ+IUMOMyiSv3o9jO/+9QP4h60bzL0JxXg7RN46LA03y7c8g8DGJ2Wd2pzhTnuGQuMWl9dCo+vZkfFP9MZlVUtlfHIKy5YuVEfm0Hhb2ZXwDWm4SfgqqrS6aHMG3S2/A7tP35fRF4VJxonRpjvR9ewsRGHzTabIyEke3J3mmxYxOHkG6ne5yzvd51PsndkEM53RpqSvHY3xcaKYhT92DTQzzGVl7OmEnAj8W4/fi+e+t1kab3b+89fx/b9/WJ1xGSRuIWij41QLenBqvsXqaUww0xptknAbX8M3yPtbju1FGzrQaBCebQNNG3NJ7Bp7WpATgTvBV7ZI1QqN5v5a++y2BOu0RIPMeUJaE0wrNDMgMsOcMZZtQPvBNjT0vYYuqUq7Bpp25tKxaexpgTOBF6P5po5yfq0NGkwy5yvpTDCtUPYNetgyE1Z0CLn2QdqL2zXQtDOXjl1jTwscCdx75puMU1JuClYlm0U2l3NZ4UjggZVfh7/mj9RRIv4SP5ZWp08z0vh0+MrK4b9jrWWh81ljaYjJ+XJbWJpjGrBroGlnrhzhOAYP3PlVU1/C8kAJHrjH2hzTjpehr/o2+eaOVaHz2aOZ1A/vPZ6wqQxtN/nqEUaSKEAtVidvwoRkCGVC4g12DTTtzJUbnG8yi9h8k7InLS2J38kTemIebjIzYm60SRkW+iaIhNj5SeCgIaagsMOOgaaduXIBf1yWKQD2DTRng9nHZbMXuAH59nv4Y0QnropNZCl8gUVA5TLeUDIaFHo0dmCdXN1VWx7IrbusARKyr+p2lNQ0wL9YbAZFncU9P6E3ehK9w7uwldJ/DW0o9JdGEDkROMPo5MNAczawwJmck5LfzmdckgEWOONpWOCMp2GBM57GNE1YV1eHqqoq1cIwxcHY2BgGBgYy58EZpphJK/DxcYvbzRimSCgvL5cpSiJF4AzjJSw3meEMFhK5wCuPceWKM8+XbOC/h31m/h7A/wNmTkBF/BcDAgAAAABJRU5ErkJggg==;" vertex="1" parent="1">
          <mxGeometry x="180" y="210" width="184" height="160" as="geometry" />
        </mxCell>
      </root>
    </mxGraphModel>
  </diagram>
</mxfile>
